<?xml version="1.0" encoding="UTF-8"?><svg xmlns="http://www.w3.org/2000/svg" viewBox="0 0 211.8 211.8"><defs><style>.cls-1{stroke-width:0px;}.cls-2{fill:none;stroke-miterlimit:10;stroke-width:.5px;}path{
      fill: #020203;
      stroke: #020203;
    }
    @media (prefers-color-scheme: dark) {
      path {
        fill: #fff;
        stroke: #fff;
      }
    }</style></defs><g id="Layer_1"><path class="cls-1" d="m164.6,35.01h-31.07c-.35-6.65,2.63-20.74-7.97-20.74h-39.3c-10.59,0-7.61,14.09-7.97,20.66-15.23,1.4-47.88-7.09-48.32,17.24v113.87c.61,15.93,14.44,18.38,27.57,17.24-.53,5.95.26,13.74,7.97,13.83h80.7c7.61,0,8.49-7.88,7.97-13.83,13.13,1.05,26.96-1.23,27.57-17.24V52.17c.09-9.37-7.7-17.16-17.16-17.16Zm-79.39-12.78c0-.61.44-1.05,1.05-1.05h39.3c.61,0,1.05.44,1.05,1.05v12.78h-41.4v-12.78h0Zm62.06,167.09c.26,2.98-80.7.09-81.75,1.05-2.01.18-.7-5.95-1.05-6.91h82.8v5.86Zm27.66-23.11c-.18,11.47-12.43,10.68-20.74,10.33H47.23c-5.69,0-10.33-4.64-10.33-10.33V52.26c0-5.69,4.64-10.33,10.33-10.33h31.07c19.78.18,66.96-.09,86.3,0,5.69,0,10.33,4.64,10.33,10.33v113.96h0Zm-62.14-17.33h-13.83c-4.46-.09-4.46,7,0,6.91h13.83c4.46.09,4.46-6.91,0-6.91Zm-19.96-75.8c-19.34-31.6-66.87-3.68-48.58,28.62,37.29,50.77,75.62,31.6,48.58-28.62Zm-3.06,50.42c-9.1,5.43-32.91-14-39.65-25.3-13.74-24.42,22.14-45.43,36.76-21.62,4.99,6.91,12.78,40.96,2.89,46.91Zm67.83-60.39c-29.23-15.14-47.35,15.14-47.26,43.85-.26,9.89,1.75,18.82,8.23,22.58,17.24,8.23,41.75-16.37,49.1-27.75,7.7-13.22,3.41-30.72-10.07-38.69Zm4.03,35.1c-3.68,7.7-29.58,31.07-39.65,25.3-10.15-7.44-1.93-39.3,2.89-46.91,14.7-23.9,50.5-2.63,36.76,21.62Zm-76.06-.26c-2.28-4.38-6.3-3.94-7-3.85,3.06-6.39-2.8-14.88-5.6-20.48-1.58-2.89-4.29.18-2.89,2.36,2.89,5.34,10.15,14.97,3.59,20.13-6.74,6.13-12.43-5.86-15.84-10.07-1.75-2.54-4.99.26-3.06,2.54l6.56,8.49c3.68,4.81,8.58,4.11,9.28,4.03-2.45,5.78,2.01,10.59,5.25,14.62.53,1.31,3.15-.79,2.01-2.01l-3.94-5.43c-3.94-4.99,3.68-15.93,9.37-8.4.79.61,3.06,7.97,4.81,5.95,2.1-1.23-2.28-6.48-2.54-7.88Zm-4.03,2.89c-.44-.7-1.23-.79-1.84-.18-.88,1.23-5.78,3.85-4.29,5.78.18.44.96.88,1.93.09.88-1.23,5.51-3.68,4.2-5.69Zm.7,4.38c-.79,1.14-5.43,3.76-4.11,5.43,1.66,1.49,4.2-2.63,5.43-3.33,1.31-.96.26-3.5-1.31-2.1Zm-17.42-17.16l4.81-4.03c1.75-1.23-.18-5.25-2.19-3.68l-4.99,4.2c-1.75,1.23-.18,5.08,2.36,3.5Zm1.66,5.6c.26.44,1.23,1.23,2.36.35,1.14-1.49,6.65-4.11,4.9-6.56-1.49-2.98-5.6,2.89-7,3.5-.79.61-.88,1.75-.26,2.71Zm87.44-7.53l-6.3,8.67c-6.13,8.05-15.75-1.93-11.03-9.45.53-2.1,7.53-10.5,4.81-12.52-2.54-2.45-6.21,9.28-7.35,10.33-1.84,3.5-1.93,7.7-.7,11.03-.7-.09-4.81-.53-7,3.85l-3.06,5.95c-.7,1.14,1.14,3.41,2.01,1.93,2.45-4.81,5.51-11.55,11.12-6.83,5.34,5.08.88,10.5-2.45,14.79-1.14,1.14,1.49,3.24,2.01,2.01,3.24-4.03,7.7-8.84,5.25-14.62.7.09,5.6.79,9.28-4.03l6.56-8.49c1.84-2.36-1.31-5.16-3.15-2.63Zm-17.51,20.31c1.49-1.93-3.5-4.55-4.29-5.78-.61-.61-1.49-.53-1.84.18-1.31,1.93,3.41,4.46,4.29,5.69.88.88,1.66.35,1.84-.09Zm-3.15,2.19l-3.76-3.41c-1.58-1.31-2.63,1.14-1.31,2.19l3.59,3.24c1.14,1.31,3.06-.61,1.49-2.01Zm8.93-24.6l4.81,4.03c2.54,1.58,4.03-2.28,2.36-3.5l-4.99-4.2c-2.1-1.66-4.03,2.36-2.19,3.68Zm-4.2,3.41c-1.75,2.45,3.76,5.16,4.9,6.56,1.14.88,2.1.09,2.36-.35,2.01-2.45-3.85-5.25-4.99-6.74-.7-.61-1.66-.44-2.28.53Z"/></g><g id="Layer_2"><rect class="cls-2" x=".25" y=".25" width="211.3" height="211.3"/></g></svg>
